<svg width="120" height="120" viewBox="0 0 120 120" fill="none" xmlns="http://www.w3.org/2000/svg">
<g clip-path="url(#clip0_98_2788)">
<path d="M41.0226 79.2227C41.939 80.1372 43.4231 80.1372 44.3367 79.2227C45.2533 78.3062 45.2533 76.8229 44.3367 75.9084C43.4231 74.992 41.939 74.992 41.0226 75.9084C40.109 76.8229 40.109 78.3062 41.0226 79.2227ZM50.969 72.5924L73.3966 50.1501C74.3113 49.2344 74.3113 47.7503 73.3956 46.8348C72.4792 45.9203 70.9961 45.9212 70.0806 46.8358L47.6528 69.2781C46.7374 70.1936 46.7383 71.6777 47.6538 72.5931C48.5692 73.5079 50.0535 73.5079 50.969 72.5924Z" fill="#333333"/>
<path d="M36.9186 63.4396L16.7319 83.6261C16.4992 83.8598 16.3183 84.1399 16.201 84.4481C16.1973 84.4556 16.1937 84.4628 16.1909 84.4701C14.3269 89.511 8.67171 104.802 6.44703 110.817C6.29176 111.238 6.26038 111.694 6.3566 112.132C6.45283 112.57 6.67263 112.971 6.98995 113.288C7.30726 113.605 7.70878 113.824 8.14689 113.92C8.58501 114.015 9.04134 113.983 9.46179 113.827L35.7776 104.053C36.0927 103.934 36.3793 103.751 36.6191 103.514L56.8037 83.3294L92.7922 119.522C93.0101 119.741 93.2692 119.915 93.5545 120.034C93.8399 120.152 94.1458 120.213 94.4548 120.213H94.4567C94.7659 120.213 95.0719 120.151 95.3572 120.032C95.6425 119.913 95.9014 119.739 96.1191 119.519L119.321 96.1019C120.229 95.1855 120.225 93.7078 119.313 92.7949L83.3265 56.8066L109.825 30.3084C115.321 24.8182 115.325 15.9135 109.826 10.4205C104.331 4.9237 95.4352 4.92276 89.9375 10.4205L63.4367 36.9213C62.078 35.5626 29.4844 2.96808 27.4362 0.921045C26.9984 0.482672 26.4046 0.235676 25.785 0.234138C25.1654 0.232601 24.5704 0.476648 24.1304 0.912842L0.694761 24.1113C0.474952 24.329 0.300398 24.588 0.181158 24.8735C0.0619183 25.159 0.000350072 25.4652 1.48853e-06 25.7746C-0.000347095 26.0839 0.0605309 26.3903 0.179127 26.676C0.297723 26.9618 0.471693 27.2212 0.691011 27.4394L36.9186 63.4396ZM65.0937 41.8935L65.0947 41.8926V41.8917L79.7103 27.2772L92.968 40.5358L78.3551 55.1477C78.3551 55.1486 78.3551 55.1486 78.3542 55.1486V55.1496L34.962 98.5417L21.7041 85.2831L65.0937 41.8935ZM87.9976 18.9897L101.255 32.2483L96.2832 37.2208L83.0246 23.9629L87.9976 18.9897ZM21.0552 104.521L15.7395 99.2055L19.3184 89.5275L30.7222 100.931L21.0552 104.521ZM13.9498 104.045L16.2209 106.316L12.6139 107.656L13.9498 104.045ZM85.4487 65.5582L75.4062 75.5988C74.4908 76.5133 74.4908 77.9974 75.4062 78.9128C76.321 79.8285 77.8051 79.8285 78.7205 78.9138L88.763 68.8732L95.8611 75.9714L89.1338 82.6978C88.2191 83.6132 88.2191 85.0973 89.1338 86.0128C90.0493 86.9285 91.5334 86.9275 92.4488 86.0128L99.1761 79.2855L106.275 86.3854L96.2337 96.426C95.318 97.3406 95.318 98.8246 96.2337 99.7401C97.1483 100.656 98.6323 100.656 99.5478 99.7401L109.59 89.7007L114.349 94.4603C94.5582 114.234 94.452 114.543 94.452 114.543L60.1189 80.0144L80.0124 60.1207L85.4487 65.5582ZM106.511 13.7355C110.175 17.395 110.177 23.3303 106.51 26.9934L104.57 28.9333L91.3119 15.6757L93.2525 13.7348C96.9158 10.0708 102.847 10.068 106.511 13.7355ZM31.0006 11.1145L20.96 21.1523C20.0455 22.0668 20.0455 23.5509 20.96 24.4664C21.8757 25.3821 23.3598 25.3821 24.2752 24.4675L34.3159 14.4285L41.4139 21.5278L34.6885 28.2513C33.773 29.1667 33.773 30.6508 34.6876 31.5665C35.603 32.481 37.0862 32.482 38.0028 31.5665L44.7291 24.8418L51.3549 31.4685L41.3159 41.5082C40.4014 42.4237 40.4014 43.9078 41.3159 44.8232C42.2316 45.7378 43.7157 45.7387 44.6312 44.8223L54.6699 34.7826L60.1226 40.2356L40.2329 60.1253L5.67171 25.7803C5.67171 25.7803 5.99656 25.6741 25.771 5.88417L31.0006 11.1145Z" fill="#333333"/>
</g>
<defs>
<clipPath id="clip0_98_2788">
<rect width="120" height="120" fill="white"/>
</clipPath>
</defs>
</svg>
