<svg width="21" height="16" viewBox="0 0 21 16" fill="none"  xmlns="http://www.w3.org/2000/svg">
<path  d="M2.82837 2L8.93601 6.61227L8.93804 6.61396C9.61622 7.11128 9.95551 7.3601 10.3271 7.45621C10.6556 7.54117 11.0009 7.54117 11.3293 7.45621C11.7013 7.36001 12.0416 7.11047 12.7209 6.61227C12.7209 6.61227 16.6385 3.60594 18.8284 2M1.82837 11.8002V4.2002C1.82837 3.08009 1.82837 2.51962 2.04636 2.0918C2.2381 1.71547 2.54384 1.40973 2.92017 1.21799C3.34799 1 3.90846 1 5.02856 1H16.6286C17.7487 1 18.3079 1 18.7358 1.21799C19.1121 1.40973 19.4188 1.71547 19.6106 2.0918C19.8284 2.5192 19.8284 3.07899 19.8284 4.19691V11.8036C19.8284 12.9215 19.8284 13.4805 19.6106 13.9079C19.4188 14.2842 19.1121 14.5905 18.7358 14.7822C18.3084 15 17.7494 15 16.6315 15H5.02528C3.90736 15 3.34757 15 2.92017 14.7822C2.54384 14.5905 2.2381 14.2842 2.04636 13.9079C1.82837 13.4801 1.82837 12.9203 1.82837 11.8002Z" stroke="white" stroke-width="2" stroke-linecap="round" stroke-linejoin="round"/>
</svg>
