<svg width="21" height="16" viewBox="0 0 21 16" fill="none" xmlns="http://www.w3.org/2000/svg">
<path d="M2.5 2L8.60764 6.61227L8.60967 6.61396C9.28785 7.11128 9.62714 7.3601 9.99876 7.45621C10.3272 7.54117 10.6725 7.54117 11.001 7.45621C11.3729 7.36001 11.7132 7.11047 12.3926 6.61227C12.3926 6.61227 16.3101 3.60594 18.5 2M1.5 11.8002V4.2002C1.5 3.08009 1.5 2.51962 1.71799 2.0918C1.90973 1.71547 2.21547 1.40973 2.5918 1.21799C3.01962 1 3.58009 1 4.7002 1H16.3002C17.4203 1 17.9796 1 18.4074 1.21799C18.7837 1.40973 19.0905 1.71547 19.2822 2.0918C19.5 2.5192 19.5 3.07899 19.5 4.19691V11.8036C19.5 12.9215 19.5 13.4805 19.2822 13.9079C19.0905 14.2842 18.7837 14.5905 18.4074 14.7822C17.98 15 17.421 15 16.3031 15H4.69691C3.57899 15 3.0192 15 2.5918 14.7822C2.21547 14.5905 1.90973 14.2842 1.71799 13.9079C1.5 13.4801 1.5 12.9203 1.5 11.8002Z" stroke="#333333" stroke-width="2" stroke-linecap="round" stroke-linejoin="round"/>
</svg>
