<svg width="118" height="120" viewBox="0 0 118 120" fill="none" xmlns="http://www.w3.org/2000/svg">
<path d="M6.2653 33.7012H7.63725V35.6445C7.63879 37.0635 8.2031 38.4239 9.20639 39.4274C10.2097 40.4309 11.57 40.9954 12.989 40.9972H15.8942V69.8859H10.6804C8.06972 69.8887 5.56675 70.927 3.72062 72.773C1.87449 74.6189 0.835963 77.1218 0.832877 79.7325V84.82C0.833134 85.2709 1.01236 85.7032 1.33119 86.022C1.65001 86.3408 2.08235 86.5201 2.53324 86.5203H4.56493V104.593C4.56725 106.668 5.39277 108.658 6.86039 110.126C8.32802 111.593 10.3179 112.419 12.3934 112.421H16.0536C16.4516 114.549 17.5801 116.47 19.2442 117.854C20.9082 119.237 23.0033 119.997 25.1675 120H92.8284C94.9926 119.997 97.0877 119.237 98.7517 117.854C100.416 116.47 101.544 114.549 101.942 112.421H105.607C107.683 112.419 109.672 111.593 111.14 110.125C112.607 108.658 113.433 106.668 113.435 104.593V86.5242H115.467C115.917 86.5242 116.35 86.3451 116.669 86.0262C116.988 85.7073 117.167 85.2748 117.167 84.8239V79.7325C117.164 77.1219 116.126 74.619 114.28 72.773C112.434 70.9271 109.931 69.8887 107.32 69.8859H102.106V40.9972H105.011C106.43 40.9954 107.79 40.4309 108.793 39.4274C109.797 38.4239 110.361 37.0635 110.363 35.6445V33.7012H111.734C113.258 33.6997 114.719 33.0938 115.796 32.0165C116.874 30.9393 117.48 29.4786 117.482 27.955V18.8157C117.48 17.292 116.874 15.8312 115.796 14.7538C114.719 13.6764 113.258 13.0703 111.734 13.0685H110.363V11.1252C110.361 9.70624 109.797 8.34579 108.793 7.34232C107.79 6.33885 106.43 5.77429 105.011 5.77249H89.7745V4.62207C89.7732 3.39662 89.2859 2.22172 88.4193 1.35519C87.5528 0.488666 86.3779 0.00128603 85.1525 0H76.4514C75.2262 0.00154316 74.0515 0.489037 73.1852 1.35554C72.3189 2.22204 71.8316 3.39679 71.8304 4.62207V5.77249H46.1743V4.62207C46.173 3.39595 45.6851 2.22046 44.8177 1.35382C43.9503 0.487182 42.7745 0.000256806 41.5483 0H32.8473C31.6219 0.00128603 30.447 0.488666 29.5804 1.35519C28.7139 2.22172 28.2265 3.39662 28.2252 4.62207V5.77249H12.989C11.57 5.77429 10.2097 6.33885 9.20639 7.34232C8.2031 8.34579 7.63879 9.70624 7.63725 11.1252V13.0685H6.2653C4.74159 13.0703 3.2808 13.6764 2.20338 14.7538C1.12595 15.8312 0.519866 17.292 0.518066 18.8157V27.955C0.519867 29.4786 1.12599 30.9393 2.20344 32.0165C3.28089 33.0938 4.74168 33.6997 6.2653 33.7012ZM26.3704 40.9972C26.3704 41.0555 26.3529 41.1099 26.3529 41.1692V55.9439C26.3559 56.5842 26.5313 57.2119 26.8608 57.7609C27.1903 58.3099 27.6616 58.76 28.2252 59.0638V64.0046C19.0705 60.735 19.328 51.4404 19.2949 51.3432V40.9972H26.3704ZM75.2311 59.5127H79.1031V59.6342C79.1031 60.0851 79.2822 60.5176 79.6011 60.8365C79.9199 61.1554 80.3524 61.3345 80.8034 61.3345C81.2544 61.3345 81.6869 61.1554 82.0057 60.8365C82.3246 60.5176 82.5038 60.0851 82.5038 59.6342V59.5127H86.3738V68.1603C86.3738 69.6379 85.7868 71.055 84.742 72.0998C83.6972 73.1447 82.2801 73.7317 80.8024 73.7317C79.3248 73.7317 77.9077 73.1447 76.8629 72.0998C75.8181 71.055 75.2311 69.6379 75.2311 68.1603V59.5127ZM88.0742 40.9972C88.1199 40.9972 88.1637 41.0153 88.1961 41.0475C88.2285 41.0798 88.2469 41.1235 88.2471 41.1692V55.9381C88.2471 55.9834 88.2293 56.027 88.1975 56.0594C88.1657 56.0917 88.1224 56.1103 88.0771 56.111H82.5038V52.2488C82.5038 51.7978 82.3246 51.3653 82.0057 51.0464C81.6869 50.7276 81.2544 50.5484 80.8034 50.5484C80.3524 50.5484 79.9199 50.7276 79.6011 51.0464C79.2822 51.3653 79.1031 51.7978 79.1031 52.2488V56.112H73.5288C73.4837 56.1115 73.4406 56.0933 73.4088 56.0613C73.3769 56.0293 73.359 55.9861 73.3587 55.941V41.1721C73.3586 41.1494 73.363 41.1268 73.3716 41.1058C73.3803 41.0847 73.393 41.0656 73.4091 41.0495C73.4252 41.0335 73.4443 41.0207 73.4653 41.0121C73.4864 41.0034 73.5089 40.999 73.5317 40.9992L88.0742 40.9972ZM71.8304 59.0638V64.7965H46.1743V59.0638C46.7387 58.76 47.2107 58.3096 47.5406 57.76C47.8705 57.2104 48.046 56.582 48.0486 55.941V41.1682C48.0486 41.109 48.034 41.0546 48.0311 40.9972H69.9794C69.9794 41.0555 69.9619 41.1099 69.9619 41.1692V55.9439C69.9641 56.5839 70.1389 57.2114 70.4677 57.7604C70.7965 58.3095 71.2672 58.7597 71.8304 59.0638ZM31.626 59.5127H35.4989V59.6342C35.4989 60.0851 35.6781 60.5176 35.9969 60.8365C36.3158 61.1554 36.7483 61.3345 37.1993 61.3345C37.6502 61.3345 38.0827 61.1554 38.4016 60.8365C38.7205 60.5176 38.8996 60.0851 38.8996 59.6342V59.5127H42.7736V68.1603C42.7736 69.6379 42.1866 71.055 41.1417 72.0998C40.0969 73.1447 38.6798 73.7317 37.2022 73.7317C35.7246 73.7317 34.3075 73.1447 33.2626 72.0998C32.2178 71.055 31.6308 69.6379 31.6308 68.1603L31.626 59.5127ZM44.4691 40.9972C44.4917 40.9971 44.5142 41.0014 44.5352 41.01C44.5562 41.0186 44.5752 41.0313 44.5913 41.0473C44.6074 41.0632 44.6201 41.0822 44.6288 41.1032C44.6375 41.1241 44.642 41.1465 44.642 41.1692V55.9381C44.6418 55.9833 44.6238 56.0266 44.5921 56.0587C44.5603 56.0909 44.5172 56.1093 44.472 56.1101H38.8996V52.2488C38.8996 51.7978 38.7205 51.3653 38.4016 51.0464C38.0827 50.7276 37.6502 50.5484 37.1993 50.5484C36.7483 50.5484 36.3158 50.7276 35.9969 51.0464C35.6781 51.3653 35.4989 51.7978 35.4989 52.2488V56.112H29.9246C29.8794 56.1115 29.8362 56.0933 29.8043 56.0614C29.7723 56.0294 29.7541 55.9862 29.7536 55.941V41.1721C29.7536 41.1263 29.7719 41.0823 29.8043 41.0498C29.8367 41.0174 29.8807 40.9992 29.9266 40.9992L44.4691 40.9972ZM4.2336 79.7325C4.23566 78.0234 4.91557 76.3849 6.12416 75.1765C7.33275 73.9681 8.97133 73.2884 10.6804 73.2866H15.8942V83.1235H4.23458L4.2336 79.7325ZM7.96566 104.597V86.5242H15.8942V109.023H12.3963C11.2221 109.023 10.096 108.556 9.26531 107.727C8.43462 106.897 7.9672 105.771 7.96566 104.597ZM88.3938 116.596H85.0835V96.8323C85.1019 96.3007 85.0108 95.771 84.8158 95.2761C84.6208 94.7812 84.3261 94.3317 83.9501 93.9555C83.574 93.5793 83.1245 93.2845 82.6297 93.0894C82.1348 92.8943 81.6051 92.8031 81.0735 92.8214H36.9263C36.3946 92.8031 35.8649 92.8943 35.3701 93.0894C34.8752 93.2845 34.4258 93.5793 34.0497 93.9555C33.6736 94.3317 33.3789 94.7812 33.184 95.2761C32.989 95.771 32.8979 96.3007 32.9163 96.8323V116.596H29.6059V96.8313C29.608 94.8906 30.3799 93.0299 31.7523 91.6577C33.1248 90.2855 34.9855 89.5138 36.9263 89.512H81.0735C83.0143 89.5138 84.875 90.2855 86.2474 91.6577C87.6198 93.0299 88.3918 94.8906 88.3938 96.8313V116.596ZM81.6827 116.596H36.317V96.8323C36.317 96.3756 36.4706 96.2221 36.9263 96.2221H81.0735C81.5292 96.2221 81.6827 96.3756 81.6827 96.8323V116.596ZM110.034 104.597C110.033 105.77 109.566 106.896 108.736 107.726C107.906 108.556 106.781 109.023 105.607 109.024H102.109V86.5242H110.038L110.034 104.597ZM107.32 73.2915C109.029 73.2936 110.668 73.9733 111.876 75.1817C113.084 76.3901 113.764 78.0284 113.766 79.7373V83.1235H102.107V73.2866L107.32 73.2915ZM98.7048 110.718C98.703 112.276 98.0833 113.77 96.9817 114.871C95.88 115.973 94.3864 116.593 92.8284 116.594H91.7946V96.8313C91.7912 93.9891 90.6606 91.2642 88.6507 89.2545C86.6408 87.2448 83.9158 86.1144 81.0735 86.1113H36.9263C34.084 86.1144 31.359 87.2448 29.3491 89.2545C27.3392 91.2642 26.2086 93.9891 26.2052 96.8313V116.596H25.1714C23.6139 116.595 22.1207 115.975 21.0191 114.874C19.9176 113.773 19.2975 112.28 19.2949 110.723V61.4609C21.5166 64.4278 24.6559 66.578 28.2252 67.5773V68.1603C28.22 70.5396 29.1601 72.8235 30.8387 74.5097C32.5174 76.1958 34.7972 77.146 37.1764 77.1513C39.5557 77.1566 41.8397 76.2165 43.5258 74.5378C45.212 72.8592 46.1622 70.5794 46.1675 68.2001H71.8323C71.8376 70.5794 72.7878 72.8592 74.474 74.5378C75.3089 75.369 76.2993 76.0276 77.3887 76.4761C78.4781 76.9245 79.6452 77.1539 80.8233 77.1513C82.0014 77.1487 83.1675 76.9141 84.2549 76.4608C85.3423 76.0076 86.3298 75.3446 87.161 74.5097C87.9922 73.6748 88.6508 72.6843 89.0993 71.5949C89.5477 70.5055 89.7771 69.3384 89.7745 68.1603V67.5773C93.3433 66.579 96.4826 64.4302 98.7048 61.4647V110.718ZM98.7048 51.3413C98.7014 54.1143 97.8418 56.8187 96.2433 59.0848C94.6449 61.3509 92.3857 63.0681 89.7745 64.0017V59.0648C90.3385 58.7609 90.8101 58.3105 91.1396 57.7611C91.4691 57.2117 91.6444 56.5836 91.6469 55.9429V41.1673C91.6469 41.109 91.6323 41.0546 91.6294 40.9972H98.7029L98.7048 51.3413ZM111.734 16.4692C112.357 16.4698 112.953 16.7171 113.393 17.1571C113.833 17.597 114.08 18.1936 114.081 18.8157V27.955C114.08 28.577 113.833 29.1732 113.393 29.613C112.953 30.0527 112.356 30.3 111.734 30.3005H110.363V16.4692H111.734ZM105.011 9.17322C105.528 9.17399 106.024 9.37993 106.39 9.74586C106.756 10.1118 106.961 10.6079 106.962 11.1252V35.6445C106.961 36.1619 106.756 36.6579 106.39 37.0239C106.024 37.3898 105.528 37.5957 105.011 37.5965H89.7745V9.17322H105.011ZM75.2311 4.62207C75.2313 4.2984 75.36 3.98804 75.5887 3.75908C75.8175 3.53012 76.1278 3.40124 76.4514 3.40073H85.1525C85.4762 3.40124 85.7866 3.53008 86.0155 3.75902C86.2444 3.98795 86.3733 4.29831 86.3738 4.62207V37.5965H75.2311V4.62207ZM71.8304 9.17322V37.5965H46.1743V9.17322H71.8304ZM31.626 4.62207C31.6265 4.29831 31.7553 3.98795 31.9843 3.75902C32.2132 3.53008 32.5236 3.40124 32.8473 3.40073H41.5483C41.709 3.40034 41.8682 3.43165 42.0168 3.49284C42.1653 3.55404 42.3004 3.64392 42.4142 3.75736C42.528 3.8708 42.6183 4.00556 42.68 4.15394C42.7416 4.30231 42.7734 4.46139 42.7736 4.62207V37.5965H31.626V4.62207ZM11.038 11.1252C11.0385 10.6079 11.2442 10.1118 11.6099 9.74586C11.9757 9.37993 12.4716 9.17399 12.989 9.17322H28.2252V37.5965H12.989C12.4716 37.5957 11.9757 37.3898 11.6099 37.0239C11.2442 36.6579 11.0385 36.1619 11.038 35.6445V11.1252ZM3.91879 18.8157C3.91931 18.1936 4.16669 17.597 4.60664 17.1571C5.04658 16.7171 5.64312 16.4698 6.2653 16.4692H7.63725V30.3005H6.2653C5.64329 30.3 5.04689 30.0527 4.60698 29.613C4.16706 29.1732 3.91957 28.577 3.91879 27.955V18.8157Z" fill="#333333"/>
</svg>
