<svg width="25" height="24" viewBox="0 0 25 24" fill="none" xmlns="http://www.w3.org/2000/svg">
<path d="M12.7143 2.20389C15.8572 2.20389 16.2857 2.20389 17.5715 2.20389C18.7143 2.20389 19.2857 2.48961 19.7143 2.63246C20.2857 2.91818 20.7143 3.06104 21.1429 3.48961C21.5715 3.91818 21.8572 4.34675 22 4.91818C22.1429 5.34675 22.2857 5.91818 22.4286 7.06104C22.4286 8.34675 22.4286 8.63246 22.4286 11.9182C22.4286 15.2039 22.4286 15.4896 22.4286 16.7753C22.4286 17.9182 22.1429 18.4896 22 18.9182C21.7143 19.4896 21.5715 19.9182 21.1429 20.3467C20.7143 20.7753 20.2857 21.061 19.7143 21.2039C19.2857 21.3467 18.7143 21.4896 17.5715 21.6325C16.2857 21.6325 16 21.6325 12.7143 21.6325C9.42861 21.6325 9.14289 21.6325 7.85718 21.6325C6.71432 21.6325 6.14289 21.3467 5.71432 21.2039C5.14289 20.9182 4.71432 20.7753 4.28575 20.3467C3.85718 19.9182 3.57146 19.4896 3.42861 18.9182C3.28575 18.4896 3.14289 17.9182 3.00003 16.7753C3.00003 15.4896 3.00003 15.2039 3.00003 11.9182C3.00003 8.63246 3.00003 8.34675 3.00003 7.06104C3.00003 5.91818 3.28575 5.34675 3.42861 4.91818C3.71432 4.34675 3.85718 3.91818 4.28575 3.48961C4.71432 3.06104 5.14289 2.77532 5.71432 2.63246C6.14289 2.48961 6.71432 2.34675 7.85718 2.20389C9.14289 2.20389 9.57146 2.20389 12.7143 2.20389ZM12.7143 0.0610352C9.42861 0.0610352 9.14289 0.0610352 7.85718 0.0610352C6.57146 0.0610352 5.71432 0.34675 5.00004 0.632465C4.28575 0.918179 3.57146 1.34675 2.85718 2.06104C2.14289 2.77532 1.85718 3.34675 1.42861 4.20389C1.14289 4.91818 1.00003 5.77532 0.857178 7.06104C0.857178 8.34675 0.857178 8.77532 0.857178 11.9182C0.857178 15.2039 0.857178 15.4896 0.857178 16.7753C0.857178 18.061 1.14289 18.9182 1.42861 19.6325C1.71432 20.3467 2.14289 21.061 2.85718 21.7753C3.57146 22.4896 4.14289 22.7753 5.00004 23.2039C5.71432 23.4896 6.57146 23.6325 7.85718 23.7753C9.14289 23.7753 9.57146 23.7753 12.7143 23.7753C15.8572 23.7753 16.2857 23.7753 17.5715 23.7753C18.8572 23.7753 19.7143 23.4896 20.4286 23.2039C21.1429 22.9182 21.8572 22.4896 22.5715 21.7753C23.2857 21.061 23.5715 20.4896 24 19.6325C24.2857 18.9182 24.4286 18.061 24.5715 16.7753C24.5715 15.4896 24.5715 15.061 24.5715 11.9182C24.5715 8.77532 24.5715 8.34675 24.5715 7.06104C24.5715 5.77532 24.2857 4.91818 24 4.20389C23.7143 3.48961 23.2857 2.77532 22.5715 2.06104C21.8572 1.34675 21.2857 1.06104 20.4286 0.632465C19.7143 0.34675 18.8572 0.203892 17.5715 0.0610352C16.2857 0.0610352 16 0.0610352 12.7143 0.0610352Z" fill="#F5F5F5"/>
<path d="M12.7143 5.77532C9.28575 5.77532 6.57146 8.48961 6.57146 11.9182C6.57146 15.3467 9.28575 18.061 12.7143 18.061C16.1429 18.061 18.8572 15.3467 18.8572 11.9182C18.8572 8.48961 16.1429 5.77532 12.7143 5.77532ZM12.7143 15.9182C10.5715 15.9182 8.71432 14.2039 8.71432 11.9182C8.71432 9.77532 10.4286 7.91818 12.7143 7.91818C14.8572 7.91818 16.7143 9.63246 16.7143 11.9182C16.7143 14.061 14.8572 15.9182 12.7143 15.9182Z" fill="#F5F5F5"/>
<path d="M19 7.06104C19.789 7.06104 20.4286 6.42144 20.4286 5.63246C20.4286 4.84349 19.789 4.20389 19 4.20389C18.2111 4.20389 17.5715 4.84349 17.5715 5.63246C17.5715 6.42144 18.2111 7.06104 19 7.06104Z" fill="#F5F5F5"/>
</svg>
