<svg width="23" height="22" viewBox="0 0 23 22" fill="none" xmlns="http://www.w3.org/2000/svg">
<path d="M11.5 1.98795C14.4157 1.98795 14.8133 1.98795 16.006 1.98795C17.0663 1.98795 17.5964 2.25301 17.994 2.38554C18.5241 2.6506 18.9217 2.78313 19.3193 3.18072C19.7169 3.57831 19.9819 3.9759 20.1145 4.50603C20.247 4.90362 20.3795 5.43374 20.512 6.49398C20.512 7.68675 20.512 7.95181 20.512 11C20.512 14.0482 20.512 14.3133 20.512 15.506C20.512 16.5663 20.247 17.0964 20.1145 17.494C19.8494 18.0241 19.7169 18.4217 19.3193 18.8193C18.9217 19.2169 18.5241 19.4819 17.994 19.6145C17.5964 19.747 17.0663 19.8795 16.006 20.012C14.8133 20.012 14.5482 20.012 11.5 20.012C8.45181 20.012 8.18675 20.012 6.99398 20.012C5.93374 20.012 5.40362 19.747 5.00603 19.6145C4.4759 19.3494 4.07831 19.2169 3.68072 18.8193C3.28313 18.4217 3.01807 18.0241 2.88554 17.494C2.75301 17.0964 2.62048 16.5663 2.48795 15.506C2.48795 14.3133 2.48795 14.0482 2.48795 11C2.48795 7.95181 2.48795 7.68675 2.48795 6.49398C2.48795 5.43374 2.75301 4.90362 2.88554 4.50603C3.1506 3.9759 3.28313 3.57831 3.68072 3.18072C4.07831 2.78313 4.4759 2.51807 5.00603 2.38554C5.40362 2.25301 5.93374 2.12048 6.99398 1.98795C8.18675 1.98795 8.58434 1.98795 11.5 1.98795ZM11.5 0C8.45181 0 8.18675 0 6.99398 0C5.80121 0 5.00603 0.265061 4.34337 0.530121C3.68072 0.795182 3.01807 1.19277 2.35542 1.85542C1.69277 2.51807 1.42771 3.04819 1.03012 3.84337C0.765061 4.50603 0.63253 5.30121 0.5 6.49398C0.5 7.68675 0.5 8.08434 0.5 11C0.5 14.0482 0.5 14.3133 0.5 15.506C0.5 16.6988 0.765061 17.494 1.03012 18.1566C1.29518 18.8193 1.69277 19.4819 2.35542 20.1446C3.01807 20.8072 3.54819 21.0723 4.34337 21.4699C5.00603 21.7349 5.80121 21.8675 6.99398 22C8.18675 22 8.58434 22 11.5 22C14.4157 22 14.8133 22 16.006 22C17.1988 22 17.994 21.7349 18.6566 21.4699C19.3193 21.2048 19.9819 20.8072 20.6446 20.1446C21.3072 19.4819 21.5723 18.9518 21.9699 18.1566C22.2349 17.494 22.3675 16.6988 22.5 15.506C22.5 14.3133 22.5 13.9157 22.5 11C22.5 8.08434 22.5 7.68675 22.5 6.49398C22.5 5.30121 22.2349 4.50603 21.9699 3.84337C21.7048 3.18072 21.3072 2.51807 20.6446 1.85542C19.9819 1.19277 19.4518 0.927712 18.6566 0.530121C17.994 0.265061 17.1988 0.13253 16.006 0C14.8133 0 14.5482 0 11.5 0Z" fill="#e32124"/>
<path d="M11.5 5.30121C8.31928 5.30121 5.80121 7.81928 5.80121 11C5.80121 14.1807 8.31928 16.6988 11.5 16.6988C14.6807 16.6988 17.1988 14.1807 17.1988 11C17.1988 7.81928 14.6807 5.30121 11.5 5.30121ZM11.5 14.7108C9.51205 14.7108 7.78916 13.1205 7.78916 11C7.78916 9.01205 9.37952 7.28916 11.5 7.28916C13.488 7.28916 15.2108 8.87952 15.2108 11C15.2108 12.988 13.488 14.7108 11.5 14.7108Z" fill="#e32124"/>
<path d="M17.3313 6.49398C18.0633 6.49398 18.6566 5.90062 18.6566 5.16868C18.6566 4.43673 18.0633 3.84337 17.3313 3.84337C16.5994 3.84337 16.006 4.43673 16.006 5.16868C16.006 5.90062 16.5994 6.49398 17.3313 6.49398Z" fill="#e32124"/>
</svg>
