<svg width="23" height="24" viewBox="0 0 23 24" fill="none" xmlns="http://www.w3.org/2000/svg">
<path d="M5.14287 23.2859H0.28571V8.00014H5.14287V23.2859ZM2.71429 5.85728C1.14286 5.85728 0 4.71442 0 3.143C0 1.57157 1.28572 0.428711 2.71429 0.428711C4.28572 0.428711 5.42858 1.57157 5.42858 3.143C5.42858 4.71442 4.28572 5.85728 2.71429 5.85728ZM22.8571 23.2859H18V15.0001C18 12.5716 17 11.8573 15.5714 11.8573C14.1428 11.8573 12.7143 13.0001 12.7143 15.143V23.2859H7.85714V8.00014H12.4286V10.143C12.8571 9.143 14.5714 7.57157 17 7.57157C19.7143 7.57157 22.5714 9.143 22.5714 13.8573V23.2859H22.8571Z" fill="white"/>
</svg>
