<svg width="24" height="24" viewBox="0 0 23 22" fill="none" xmlns="http://www.w3.org/2000/svg">
<path d="M5.45001 22H0.774996V7.2875H5.45001V22ZM3.1125 5.225C1.6 5.225 0.5 4.125 0.5 2.6125C0.5 1.1 1.7375 0 3.1125 0C4.625 0 5.725 1.1 5.725 2.6125C5.725 4.125 4.625 5.225 3.1125 5.225ZM22.5 22H17.825V14.025C17.825 11.6875 16.8625 11 15.4875 11C14.1125 11 12.7375 12.1 12.7375 14.1625V22H8.0625V7.2875H12.4625V9.35C12.875 8.3875 14.525 6.875 16.8625 6.875C19.475 6.875 22.225 8.3875 22.225 12.925V22H22.5Z" fill="#e32124"/>
</svg>
