<svg width="17" height="20" viewBox="0 0 17 20" fill="none" xmlns="http://www.w3.org/2000/svg">
<path d="M1.5 8.04974C1.5 12.9016 5.74448 16.9138 7.62319 18.4521C7.89206 18.6723 8.02811 18.7837 8.22871 18.8401C8.38491 18.8841 8.6148 18.8841 8.771 18.8401C8.97197 18.7835 9.10707 18.6732 9.37695 18.4523C11.2557 16.914 15.4999 12.902 15.4999 8.05019C15.4999 6.21407 14.7625 4.45294 13.4497 3.15461C12.137 1.85629 10.3566 1.12689 8.50008 1.12689C6.64357 1.12689 4.86301 1.8564 3.55025 3.15472C2.2375 4.45305 1.5 6.21363 1.5 8.04974Z" stroke="#333333" stroke-width="2" stroke-linecap="round" stroke-linejoin="round"/>
<path d="M6.5 7.12689C6.5 8.23146 7.39543 9.12689 8.5 9.12689C9.60457 9.12689 10.5 8.23146 10.5 7.12689C10.5 6.02232 9.60457 5.12689 8.5 5.12689C7.39543 5.12689 6.5 6.02232 6.5 7.12689Z" stroke="#333333" stroke-width="2" stroke-linecap="round" stroke-linejoin="round"/>
</svg>
