<svg width="21" height="20" viewBox="0 0 21 20" fill="none" xmlns="http://www.w3.org/2000/svg">
<path d="M8.33059 2.25722C8.02686 1.4979 7.29144 1 6.47363 1H3.72286C2.67643 1 1.82812 1.8481 1.82812 2.89453C1.82812 11.7892 9.0389 19 17.9336 19C18.98 19 19.8281 18.1516 19.8281 17.1052L19.8286 14.354C19.8286 13.5361 19.3308 12.8009 18.5715 12.4971L15.9351 11.4429C15.253 11.1701 14.4764 11.2929 13.9121 11.7632L13.2316 12.3307C12.437 12.9929 11.2678 12.9402 10.5363 12.2088L8.62035 10.2911C7.88891 9.55962 7.83486 8.39134 8.49707 7.59668L9.06445 6.9163C9.53474 6.35195 9.65862 5.57516 9.38579 4.89309L8.33059 2.25722Z" stroke="white" stroke-width="2" stroke-linecap="round" stroke-linejoin="round"/>
</svg>
