<svg width="21" height="20" viewBox="0 0 21 20" fill="none" xmlns="http://www.w3.org/2000/svg">
<path d="M8.00222 2.25722C7.69849 1.4979 6.96307 1 6.14526 1H3.39449C2.34806 1 1.49976 1.8481 1.49976 2.89453C1.49976 11.7892 8.71053 19 17.6052 19C18.6517 19 19.4998 18.1516 19.4998 17.1052L19.5002 14.354C19.5002 13.5361 19.0024 12.8009 18.2431 12.4971L15.6067 11.4429C14.9246 11.1701 14.148 11.2929 13.5837 11.7632L12.9033 12.3307C12.1086 12.9929 10.9394 12.9402 10.208 12.2088L8.29198 10.2911C7.56054 9.55962 7.50649 8.39134 8.1687 7.59668L8.73608 6.9163C9.20637 6.35195 9.33025 5.57516 9.05742 4.89309L8.00222 2.25722Z" stroke="#333333" stroke-width="2" stroke-linecap="round" stroke-linejoin="round"/>
</svg>
