<svg width="120" height="120" viewBox="0 0 120 120" fill="none" xmlns="http://www.w3.org/2000/svg">
<g clip-path="url(#clip0_98_2800)">
<path d="M76 24C79.1826 24 82.2349 22.7357 84.4853 20.4853C86.7357 18.2348 88 15.1826 88 12C88 8.8174 86.7357 5.76516 84.4853 3.51472C82.2349 1.26428 79.1826 0 76 0C72.8174 0 69.7652 1.26428 67.5147 3.51472C65.2643 5.76516 64 8.8174 64 12C64 15.1826 65.2643 18.2348 67.5147 20.4853C69.7652 22.7357 72.8174 24 76 24ZM76 4C78.1218 4 80.1566 4.84286 81.6569 6.34315C83.1572 7.84344 84 9.87827 84 12C84 14.1217 83.1572 16.1566 81.6569 17.6569C80.1566 19.1571 78.1218 20 76 20C73.8783 20 71.8435 19.1571 70.3432 17.6569C68.8429 16.1566 68 14.1217 68 12C68 9.87827 68.8429 7.84344 70.3432 6.34315C71.8435 4.84286 73.8783 4 76 4ZM4.00003 120H116C116.683 120.001 117.356 119.827 117.953 119.494C118.55 119.162 119.051 118.682 119.41 118.1C119.769 117.519 119.973 116.855 120.002 116.172C120.032 115.489 119.886 114.81 119.578 114.2L117.578 110.2C117.246 109.536 116.735 108.978 116.103 108.589C115.471 108.201 114.742 107.996 114 108H96V55.632C97.1664 55.2219 98.1766 54.4598 98.8913 53.451C99.6059 52.4422 99.9898 51.2363 99.9898 50C99.9898 48.7637 99.6059 47.5578 98.8913 46.549C98.1766 45.5402 97.1664 44.7781 96 44.368V34C96 33.4696 95.7893 32.9609 95.4142 32.5858C95.0392 32.2107 94.5305 32 94 32C93.4696 32 92.9609 32.2107 92.5858 32.5858C92.2107 32.9609 92 33.4696 92 34V44H86.14C85.8108 44.0001 85.4867 43.9188 85.1965 43.7636C84.9062 43.6083 84.6587 43.3838 84.476 43.11L75.02 28.926C73.5484 26.7148 71.3388 25.0986 68.7857 24.3659C66.2327 23.6332 63.5023 23.8317 61.082 24.926C60.9222 23.8514 60.4721 22.8407 59.7802 22.003C59.0884 21.1652 58.1811 20.5322 57.156 20.172L45.814 16.232C44.3075 15.715 42.6575 15.8157 41.225 16.5121C39.7924 17.2085 38.694 18.4439 38.17 19.948L36.2 25.61C35.7063 25.4629 35.1748 25.5121 34.7164 25.7472C34.258 25.9824 33.908 26.3853 33.7393 26.8722C33.5707 27.359 33.5964 27.8921 33.8112 28.3604C34.0259 28.8287 34.4131 29.1961 34.892 29.386L32.272 36.948C31.7801 36.8066 31.2527 36.8591 30.7983 37.0949C30.344 37.3306 29.9973 37.7316 29.8297 38.2152C29.6621 38.6988 29.6863 39.2283 29.8973 39.6947C30.1083 40.161 30.4901 40.5287 30.964 40.722C29.028 46.312 28.388 47.384 28.764 49.438C27.484 49.745 26.3405 50.4645 25.5096 51.4854C24.6788 52.5064 24.2067 53.7723 24.1663 55.088C24.1258 56.4037 24.5191 57.6963 25.2856 58.7664C26.0521 59.8365 27.1493 60.6249 28.408 61.01C41.952 65.724 42.672 66.342 45.168 65.564L43.368 78.24C43.168 79.616 44.01 78.562 28.778 99.092C27.8133 100.355 27.2467 101.877 27.1505 103.464C27.0543 105.05 27.4329 106.63 28.238 108H6.00003C5.25782 107.997 4.52945 108.201 3.89719 108.59C3.26493 108.978 2.75397 109.536 2.42203 110.2L0.422029 114.2C0.114507 114.81 -0.0315337 115.489 -0.00216273 116.172C0.0272083 116.855 0.231011 117.519 0.589807 118.1C0.948604 118.682 1.45043 119.162 2.04742 119.494C2.6444 119.827 3.31665 120.001 4.00003 120ZM80.814 108C81.5886 106.685 81.998 105.188 82 103.662V83.8C82.0035 80.863 80.9273 78.0272 78.976 75.832L67.022 62.378C66.7898 62.1176 66.6316 61.7998 66.5637 61.4576C66.4958 61.1154 66.5208 60.7613 66.636 60.432L70.296 49.458L71.98 51.814C72.9063 53.1077 74.1274 54.1622 75.5422 54.8901C76.9571 55.618 78.5249 55.9985 80.116 56H92V108H80.814ZM62.814 28.518C64.3674 27.8488 66.1062 27.7457 67.7278 28.2267C69.3493 28.7076 70.7508 29.7421 71.688 31.15L81.14 45.328C81.6886 46.151 82.4322 46.8256 83.3046 47.2918C84.1769 47.758 85.1509 48.0013 86.14 48H94C94.5305 48 95.0392 48.2107 95.4142 48.5858C95.7893 48.9609 96 49.4696 96 50C96 50.5304 95.7893 51.0392 95.4142 51.4142C95.0392 51.7893 94.5305 52 94 52H80.116C79.1613 51.9989 78.2206 51.7704 77.3716 51.3336C76.5227 50.8968 75.79 50.2642 75.234 49.488L67.634 38.838C67.4861 38.6132 67.2943 38.4206 67.0701 38.2717C66.846 38.1228 66.5941 38.0207 66.3296 37.9714C66.065 37.9221 65.7932 37.9268 65.5305 37.985C65.2678 38.0433 65.0195 38.154 64.8006 38.3104C64.5816 38.4669 64.3965 38.6659 64.2563 38.8956C64.1161 39.1253 64.0237 39.3809 63.9846 39.6472C63.9456 39.9134 63.9606 40.1848 64.0289 40.4451C64.0972 40.7054 64.2173 40.9492 64.382 41.162L67.43 45.432L62.854 59.158C62.5134 60.1579 62.445 61.2305 62.6559 62.2656C62.8668 63.3007 63.3493 64.261 64.054 65.048L75.998 78.49C77.2944 79.9543 78.007 81.8443 78 83.8V103.662C78.0287 104.715 77.6659 105.742 76.9818 106.543C76.2976 107.344 75.3407 107.863 74.296 108C73.7464 108.041 73.1942 107.968 72.6742 107.785C72.1543 107.602 71.6776 107.314 71.2742 106.938C70.8709 106.563 70.5495 106.108 70.3302 105.602C70.1109 105.097 69.9985 104.551 70 104V91.4C69.9896 88.7035 69.0787 86.0878 67.412 83.968L52.068 66.786C51.1008 65.5377 50.445 64.0769 50.155 62.5247C49.8649 60.9724 49.9489 59.3733 50.4 57.86C57.916 34.138 58 35.47 58.032 35.27C58.948 32.56 59.526 29.946 62.822 28.518H62.814ZM51.038 43.448L36.052 38.248L38.67 30.692L53.6 35.878L51.038 43.448ZM41.944 21.248C42.312 20.208 43.448 19.654 44.496 20.006L55.838 23.946C56.3352 24.1219 56.7427 24.4871 56.972 24.9621C57.2012 25.437 57.2336 25.9833 57.062 26.482L56.062 29.388C55.602 30.168 55.234 30.994 54.962 31.856C54.858 32.188 56.532 32.656 39.986 26.914L41.944 21.248ZM42.726 61.726L29.726 57.228C29.22 57.0774 28.786 56.7477 28.5052 56.3005C28.2244 55.8534 28.1159 55.3193 28.2 54.798C28.2694 54.5277 28.3934 54.2745 28.5645 54.0541C28.7356 53.8337 28.9501 53.6507 29.1948 53.5165C29.4394 53.3823 29.709 53.2997 29.9868 53.2738C30.2646 53.2479 30.5448 53.2793 30.81 53.366C32.852 54.076 32.972 54.178 33.586 54.11C39.746 56.644 39.564 56.632 40.112 56.632C40.5754 56.6325 41.0246 56.472 41.3828 56.1781C41.741 55.8841 41.9861 55.4749 42.076 55.0203C42.166 54.5657 42.0953 54.094 41.8761 53.6858C41.6569 53.2775 41.3027 52.9581 40.874 52.782C31.824 49.06 33.762 49.832 33.228 49.69C32.9717 49.4332 32.7934 49.1091 32.7138 48.7551C32.6341 48.4011 32.6564 48.0318 32.778 47.69L34.738 42.03L49.75 47.23C49.004 49.44 46.034 58.292 45.276 60.498C45.1017 60.9981 44.7363 61.4086 44.2597 61.6395C43.7832 61.8705 43.2345 61.903 42.734 61.73L42.726 61.726ZM32 101.476L45.866 82.4C47.446 80.274 47.284 79.2 48.742 68.974C49.21 69.624 47.682 67.876 56.424 77.666L55.4 83.532C55.172 84.892 55.988 83.594 38.512 106.152C38.0563 106.828 37.4071 107.35 36.6494 107.651C35.8916 107.952 35.0608 108.016 34.2656 107.837C33.4705 107.657 32.7482 107.241 32.1933 106.644C31.6384 106.047 31.2769 105.296 31.156 104.49C31.0284 103.413 31.3318 102.33 32 101.476ZM57.8 87.718C59.0332 85.8592 59.7314 83.697 59.818 81.468L64.332 86.522C65.418 87.916 66.004 89.634 66 91.4V104C66.006 105.408 66.39 106.788 67.108 108H42.148L57.8 87.718ZM4.00003 116L6.00003 112H114L116 116H4.00003Z" fill="#333333"/>
</g>
<defs>
<clipPath id="clip0_98_2800">
<rect width="120" height="120" fill="white"/>
</clipPath>
</defs>
</svg>
