
<?xml version="1.0" encoding="UTF-8"?>
<!DOCTYPE svg PUBLIC "-//W3C//DTD SVG 1.1//EN" "http://www.w3.org/Graphics/SVG/1.1/DTD/svg11.dtd">
<!-- Creator: CorelDRAW 2020 (64-Bit) -->
<svg xmlns="http://www.w3.org/2000/svg" xml:space="preserve" width="1.90882in" height="1.19321in" version="1.1" style="shape-rendering:geometricPrecision; text-rendering:geometricPrecision; image-rendering:optimizeQuality; fill-rule:evenodd; clip-rule:evenodd"
viewBox="0 0 91.512 57.204"
 xmlns:xlink="http://www.w3.org/1999/xlink"
 xmlns:xodm="http://www.corel.com/coreldraw/odm/2003">
 <defs>
  <style type="text/css">
   <![CDATA[
    .fil2 {fill:#FEFEFE;fill-rule:nonzero}
    .fil7 {fill:#B2B3B3;fill-rule:nonzero}
    .fil6 {fill:#E32124;fill-rule:nonzero}
    .fil1 {fill:#666161;fill-rule:nonzero}
    .fil0 {fill:url(#id0)}
    .fil4 {fill:url(#id1)}
    .fil5 {fill:url(#id2)}
    .fil3 {fill:url(#id3)}
   ]]>
  </style>
  <linearGradient id="id0" gradientUnits="userSpaceOnUse" x1="50.43" y1="15.039" x2="57.355" y2="15.039">
   <stop offset="0" style="stop-opacity:1; stop-color:#CBCDCF"/>
   <stop offset="1" style="stop-opacity:1; stop-color:#828486"/>
  </linearGradient>
  <linearGradient id="id1" gradientUnits="userSpaceOnUse" xlink:href="#id0" x1="39.605" y1="32.284" x2="39.605" y2="4.974">
  </linearGradient>
  <linearGradient id="id2" gradientUnits="userSpaceOnUse" xlink:href="#id0" x1="38.849" y1="18.225" x2="50.22" y2="18.225">
  </linearGradient>
  <linearGradient id="id3" gradientUnits="userSpaceOnUse" xlink:href="#id0" x1="45.368" y1="17.539" x2="53.154" y2="17.539">
  </linearGradient>
 </defs>
 <g id="Layer_x0020_1">
  <metadata id="CorelCorpID_0Corel-Layer"/>
  <path class="fil0" d="M57.355 15.132l0 -10.027 -3.129 1.274 0 5.237c0,0 0.035,2.46 -2.249,2.601l0 0 -1.547 0 0 2.566 1.687 0c0,0 2.074,-0.247 1.441,1.845l0 0c0,0 -1.231,3.321 -2.39,4.147l0 0 0.114 2.197 1.872 -0.281c0,0 3.076,-2.706 4.2,-9.56z"/>
  <polygon class="fil1" points="52.058,21.737 53.154,24.692 50.899,23.215 "/>
  <polygon class="fil2" points="32.399,4.974 44.596,0 47.899,1.283 36.02,6.38 "/>
  <polygon class="fil2" points="38.849,6.872 49.429,1.898 52.662,3.19 42.593,8.313 "/>
  <polygon class="fil2" points="45.211,8.541 54.173,3.797 57.355,4.939 48.673,9.947 "/>
  <path class="fil3" d="M45.211 12.32c-0.228,5.132 0.791,7.486 0.791,7.486l0 0c1.108,4.235 5.281,6.731 5.281,6.731l0 0c0.906,-0.616 1.872,-1.846 1.872,-1.846l0 0c-1.194,-0.967 -1.986,-1.915 -1.986,-1.915l0 0c-2.513,-2.636 -2.495,-7.328 -2.495,-7.328l0 0 0 -5.501 -3.463 -1.407 0 3.779z"/>
  <path class="fil4" d="M32.399 4.974l0 10.685c0.246,5.448 2.953,8.963 2.953,8.963l0 0c3.515,4.921 8.998,7.662 8.998,7.662 0.633,-0.351 2.46,-1.547 2.46,-1.547l0 0c-6.432,-3.409 -8.541,-7.486 -8.541,-7.486l0 0c-2.179,-3.339 -2.249,-7.768 -2.249,-7.768l0 0 0 -9.103 -3.621 -1.406z"/>
  <path class="fil5" d="M38.849 6.872l0 8.752c0.264,3.867 1.634,6.292 1.634,6.292l0 0c2.426,5.096 7.944,7.662 7.944,7.662l0 0c0.562,-0.352 1.792,-1.723 1.792,-1.723l0 0c-2.214,-0.984 -4.464,-3.866 -4.464,-3.866l0 0c-3.445,-4.218 -3.163,-8.12 -3.163,-8.12l0 0 0 -7.557 -3.743 -1.441z"/>
  <polygon class="fil1" points="57.355,4.939 54.226,8.313 54.226,6.872 "/>
  <polygon class="fil6" points="3.61,37.588 8.905,37.588 8.317,42.91 8.691,42.91 11.566,37.602 17.303,37.602 13.719,48.82 9.507,48.82 10.724,45.049 10.336,45.049 8.491,48.82 5.348,48.82 5.789,45.049 5.402,45.049 4.185,48.82 -0,48.82 "/>
  <path class="fil6" d="M23.841 44.381l0.04 -2.688 -0.615 0 -1.685 2.688 2.26 0zm-0.067 4.439l0.013 -1.216 -4.238 0 -0.763 1.216 -4.667 0 7.475 -11.232 6.191 0 0.361 11.232 -4.372 0z"/>
  <polygon class="fil6" points="33.735,43.257 33.895,42.883 31.943,37.588 36.315,37.588 37.252,40.476 37.666,40.476 40.046,37.588 44.874,37.588 39.605,42.963 39.445,43.351 41.464,48.82 36.877,48.82 36.049,46.106 35.634,46.106 33.173,48.82 28.266,48.82 "/>
  <path class="fil7" d="M52.08 40.797c0,-0.522 -0.374,-0.869 -1.337,-0.869l-2.794 0 -0.722 2.22 2.781 0c1.243,0 2.073,-0.562 2.073,-1.351zm-0.869 4.105c0,-0.575 -0.374,-0.963 -1.404,-0.963l-3.156 0 -0.829 2.541 3.182 0c1.244,0 2.206,-0.575 2.206,-1.578zm1.471 -2.18l-0.067 0.187c0.788,0.348 1.471,0.896 1.471,2.193 0,2.541 -2.514,3.718 -5.764,3.718l-6.284 0 3.637 -11.232 5.844 0c2.634,0 3.53,0.963 3.53,2.287 0,1.19 -0.762,2.326 -2.366,2.848z"/>
  <path class="fil7" d="M62.576 44.809l-0.174 -4.386 -0.468 0 -2.982 4.386 3.624 0zm0.08 2.26l-5.241 0 -1.19 1.751 -3.222 0 7.809 -11.232 4.239 0 0.655 11.232 -2.982 0 -0.067 -1.751z"/>
  <polygon class="fil7" points="69.823,37.588 72.845,37.588 69.997,46.293 76.483,46.293 75.68,48.82 66.173,48.82 "/>
  <polygon class="fil7" points="85.361,42.656 88.904,48.82 85.882,48.82 83.208,44.153 82.981,44.153 80.588,46.026 79.677,48.82 76.669,48.82 80.333,37.588 83.328,37.588 81.831,42.214 82.192,42.214 87.995,37.588 91.512,37.588 "/>
  <polygon class="fil6" points="35.451,46.24 25.632,57.204 19.066,57.204 28.318,48.767 "/>
  <path class="fil7" d="M34.159 56.706c1.053,0 1.986,-0.373 1.986,-1.33 0,-0.727 -0.782,-0.829 -1.299,-0.958l-0.241 -0.058c-0.323,-0.08 -0.487,-0.177 -0.487,-0.399 0,-0.328 0.353,-0.536 0.879,-0.536 0.547,0 0.787,0.217 0.732,0.558l0.709 0c0.302,-0.794 -0.323,-1.251 -1.321,-1.251 -1.035,0 -1.812,0.466 -1.812,1.291 0,0.683 0.717,0.842 1.144,0.939l0.289 0.067c0.388,0.084 0.569,0.182 0.569,0.416 0,0.395 -0.487,0.564 -1.021,0.564 -0.544,0 -0.872,-0.169 -0.794,-0.568l-0.733 0c-0.289,0.9 0.349,1.264 1.401,1.264zm6.701 -3.85l-0.961 0 -1.452 1.651 -0.086 0 -0.431 -1.651 -0.866 0 0.677 2.49 -0.384 1.239 0.858 0 0.371 -1.185 2.275 -2.544zm0.823 3.85c1.053,0 1.986,-0.373 1.986,-1.33 0,-0.727 -0.782,-0.829 -1.299,-0.958l-0.241 -0.058c-0.323,-0.08 -0.487,-0.177 -0.487,-0.399 0,-0.328 0.353,-0.536 0.879,-0.536 0.547,0 0.787,0.217 0.732,0.558l0.709 0c0.302,-0.794 -0.323,-1.251 -1.321,-1.251 -1.035,0 -1.812,0.466 -1.812,1.291 0,0.683 0.717,0.842 1.144,0.939l0.289 0.067c0.388,0.084 0.569,0.182 0.569,0.416 0,0.395 -0.487,0.564 -1.021,0.564 -0.544,0 -0.872,-0.169 -0.794,-0.568l-0.733 0c-0.289,0.9 0.349,1.264 1.401,1.264zm6.592 -3.85l-3.563 0 -0.229 0.74 1.361 0 -0.943 2.988 0.861 0 0.944 -2.988 1.335 0 0.233 -0.74zm3.38 0.719l0.228 -0.719 -3.059 0 -1.172 3.729 3.054 0 0.228 -0.719 -2.197 0 0.271 -0.863 2.163 0 0.194 -0.612 -2.163 0 0.259 -0.815 2.193 0zm-0.373 3.01l0.827 0 0.703 -2.242 0.091 0 0.099 2.242 0.687 0 1.431 -2.242 0.095 0 -0.703 2.242 0.828 0 1.164 -3.729 -1.16 0 -1.681 2.597 -0.078 0 -0.078 -2.597 -1.058 0 -1.168 3.729zm6.349 0.122c1.053,0 1.986,-0.373 1.986,-1.33 0,-0.727 -0.782,-0.829 -1.299,-0.958l-0.241 -0.058c-0.323,-0.08 -0.487,-0.177 -0.487,-0.399 0,-0.328 0.353,-0.536 0.879,-0.536 0.547,0 0.787,0.217 0.732,0.558l0.709 0c0.302,-0.794 -0.323,-1.251 -1.321,-1.251 -1.035,0 -1.812,0.466 -1.812,1.291 0,0.683 0.717,0.842 1.144,0.939l0.289 0.067c0.388,0.084 0.569,0.182 0.569,0.416 0,0.395 -0.487,0.564 -1.021,0.564 -0.544,0 -0.872,-0.169 -0.794,-0.568l-0.733 0c-0.289,0.9 0.349,1.264 1.401,1.264zm6.17 -3.85l-1.746 0 -1.181 3.729 0.862 0 0.306 -0.969 1.125 0c1.061,0 1.886,-0.66 1.886,-1.722 0,-0.709 -0.429,-1.038 -1.252,-1.038zm-0.565 2.024l-0.961 0.004 0.41 -1.288 0.944 0c0.375,0 0.56,0.138 0.56,0.448 0,0.494 -0.427,0.835 -0.953,0.835zm2.866 1.705l1.185 0 2.539 -3.729 -0.935 0 -1.927 2.892 -0.112 0 -0.142 -2.892 -0.84 0 0.233 3.729zm7.705 -3.729l-3.563 0 -0.229 0.74 1.361 0 -0.943 2.988 0.861 0 0.944 -2.988 1.335 0 0.233 -0.74zm0.468 3.729l3 0 0.233 -0.74 -2.138 0 0.944 -2.988 -0.858 0 -1.181 3.729zm7.146 -3.729l-3.563 0 -0.229 0.74 1.361 0 -0.943 2.988 0.861 0 0.944 -2.988 1.335 0 0.233 -0.74zm-0.615 3.729l1.716 0c1.466,0 2.569,-0.937 2.569,-2.362 0,-0.834 -0.466,-1.367 -1.56,-1.367l-1.556 0 -1.168 3.729zm1.095 -0.746l0.703 -2.237 0.703 0c0.621,0 0.922,0.231 0.922,0.746 0,0.826 -0.66,1.491 -1.552,1.491l-0.776 0z"/>
 </g>
</svg>
