<svg width="120" height="120" viewBox="0 0 120 120" fill="none" xmlns="http://www.w3.org/2000/svg">
<path d="M23.4375 77.8125L4.6875 96.5625L23.4375 115.312M115.312 96.5625L96.5625 115.312L77.8125 96.5625M96.5625 42.1875L115.312 23.4375L96.5625 4.6875M4.6875 23.4375L23.4375 4.6875L42.1875 23.4375" stroke="#333333" stroke-width="6" stroke-miterlimit="10" stroke-linecap="round" stroke-linejoin="round"/>
<path d="M23.4375 4.6875V23.4375C23.4375 37.4048 31.0734 49.5886 42.3987 56.0419M77.6013 63.9581C88.9266 70.4114 96.5625 82.5952 96.5625 96.5625V115.312M4.6875 96.5625H23.4375C44.148 96.5625 60 80.7108 60 60C60 39.2895 75.8517 23.4375 96.5625 23.4375H115.312" stroke="#333333" stroke-width="6" stroke-miterlimit="10" stroke-linecap="round" stroke-linejoin="round"/>
</svg>
