<svg width="24" height="17" viewBox="0 0 24 17" fill="none" xmlns="http://www.w3.org/2000/svg">
<path d="M22.5709 3.28599C22.2852 2.28599 21.5709 1.57171 20.5709 1.28599C18.8566 0.857422 11.5709 0.857422 11.5709 0.857422C11.5709 0.857422 4.42802 0.857422 2.57088 1.28599C1.57088 1.57171 0.85658 2.28599 0.570866 3.28599C0.285152 5.14314 0.285156 8.85742 0.285156 8.85742C0.285156 8.85742 0.285161 12.5717 0.713732 14.4289C0.999446 15.4289 1.71372 16.1431 2.71372 16.4289C4.42801 16.8574 11.7137 16.8574 11.7137 16.8574C11.7137 16.8574 18.8566 16.8574 20.7137 16.4289C21.7137 16.1431 22.428 15.4289 22.7137 14.4289C23.1423 12.5717 23.1423 8.85742 23.1423 8.85742C23.1423 8.85742 23.1423 5.14314 22.5709 3.28599ZM9.42801 12.286V5.42885L15.428 8.85742L9.42801 12.286Z" fill="white"/>
</svg>
