<svg width="23" height="16" viewBox="0 0 23 16" fill="none" xmlns="http://www.w3.org/2000/svg">
<path d="M21.95 2.3375C21.675 1.375 20.9875 0.6875 20.025 0.4125C18.375 2.45869e-07 11.3625 0 11.3625 0C11.3625 0 4.48751 2.45869e-07 2.70001 0.4125C1.73751 0.6875 1.05 1.375 0.774996 2.3375C0.499996 4.125 0.5 7.7 0.5 7.7C0.5 7.7 0.500004 11.275 0.912504 13.0625C1.1875 14.025 1.875 14.7125 2.8375 14.9875C4.4875 15.4 11.5 15.4 11.5 15.4C11.5 15.4 18.375 15.4 20.1625 14.9875C21.125 14.7125 21.8125 14.025 22.0875 13.0625C22.5 11.275 22.5 7.7 22.5 7.7C22.5 7.7 22.5 4.125 21.95 2.3375ZM9.29999 11V4.4L15.075 7.7L9.29999 11Z" fill="#e32124"/>
</svg>
